<svg xmlns="http://www.w3.org/2000/svg" xmlns:xlink="http://www.w3.org/1999/xlink" width="100" zoomAndPan="magnify" viewBox="0 0 75 30.000001" height="40" preserveAspectRatio="xMidYMid meet" version="1.0"><defs><g/><clipPath id="b38f2d7e92"><path d="M 67 8 L 73.789062 8 L 73.789062 22 L 67 22 Z M 67 8 " clip-rule="nonzero"/></clipPath></defs><g fill="#000000" fill-opacity="1"><g transform="translate(2.136321, 20.91222)"><g><path d="M 5.640625 -12.5 L 5.421875 -12.5 C 4.296875 -12.5 3.421875 -12.21875 2.796875 -11.65625 C 2.179688 -11.09375 1.875 -10.101562 1.875 -8.6875 C 1.875 -8.21875 1.914062 -7.890625 2 -7.703125 C 2.09375 -7.523438 2.140625 -7.425781 2.140625 -7.40625 C 1.453125 -7.40625 0.941406 -7.546875 0.609375 -7.828125 C 0.273438 -8.109375 0.109375 -8.578125 0.109375 -9.234375 C 0.109375 -10.117188 0.328125 -10.929688 0.765625 -11.671875 C 1.210938 -12.410156 1.914062 -13.003906 2.875 -13.453125 C 3.84375 -13.910156 5.066406 -14.140625 6.546875 -14.140625 C 7.378906 -14.140625 8.273438 -14.0625 9.234375 -13.90625 C 10.035156 -13.769531 10.75 -13.703125 11.375 -13.703125 C 12.1875 -13.703125 12.921875 -13.832031 13.578125 -14.09375 C 13.546875 -13.28125 13.332031 -12.675781 12.9375 -12.28125 C 12.550781 -11.894531 11.976562 -11.703125 11.21875 -11.703125 C 10.8125 -11.703125 10.40625 -11.734375 10 -11.796875 C 9.601562 -11.859375 9.03125 -11.96875 8.28125 -12.125 L 5.6875 0 L 2.96875 0 Z M 5.640625 -12.5 "/></g></g></g><g fill="#000000" fill-opacity="1"><g transform="translate(11.213265, 20.91222)"><g><path d="M 2.75 0.078125 C 1.820312 0.078125 1.085938 -0.160156 0.546875 -0.640625 C 0.00390625 -1.117188 -0.265625 -1.875 -0.265625 -2.90625 C -0.265625 -3.757812 -0.0859375 -4.707031 0.265625 -5.75 C 0.617188 -6.800781 1.1875 -7.707031 1.96875 -8.46875 C 2.75 -9.226562 3.726562 -9.609375 4.90625 -9.609375 C 6.519531 -9.609375 7.328125 -8.601562 7.328125 -6.59375 L 7.328125 -6.5625 C 7.359375 -6.550781 7.425781 -6.546875 7.53125 -6.546875 C 7.945312 -6.546875 8.425781 -6.65625 8.96875 -6.875 C 9.507812 -7.09375 10 -7.363281 10.4375 -7.6875 L 10.609375 -7.171875 C 10.242188 -6.785156 9.769531 -6.457031 9.1875 -6.1875 C 8.601562 -5.914062 7.960938 -5.722656 7.265625 -5.609375 C 7.160156 -4.460938 6.898438 -3.460938 6.484375 -2.609375 C 6.078125 -1.753906 5.546875 -1.09375 4.890625 -0.625 C 4.234375 -0.15625 3.519531 0.078125 2.75 0.078125 Z M 3.515625 -1.625 C 3.816406 -1.625 4.117188 -1.796875 4.421875 -2.140625 C 4.722656 -2.484375 4.984375 -2.953125 5.203125 -3.546875 C 5.429688 -4.148438 5.597656 -4.816406 5.703125 -5.546875 C 5.359375 -5.617188 5.1875 -5.882812 5.1875 -6.34375 C 5.1875 -6.851562 5.382812 -7.191406 5.78125 -7.359375 C 5.75 -7.773438 5.679688 -8.0625 5.578125 -8.21875 C 5.484375 -8.375 5.3125 -8.453125 5.0625 -8.453125 C 4.644531 -8.453125 4.238281 -8.148438 3.84375 -7.546875 C 3.457031 -6.941406 3.144531 -6.21875 2.90625 -5.375 C 2.664062 -4.53125 2.546875 -3.789062 2.546875 -3.15625 C 2.546875 -2.550781 2.613281 -2.144531 2.75 -1.9375 C 2.894531 -1.726562 3.148438 -1.625 3.515625 -1.625 Z M 3.515625 -1.625 "/></g></g></g><g fill="#000000" fill-opacity="1"><g transform="translate(19.497632, 20.91222)"><g><path d="M 3.34375 4.71875 C 2.738281 4.71875 2.234375 4.5625 1.828125 4.25 C 1.429688 3.9375 1.234375 3.484375 1.234375 2.890625 C 1.234375 2.171875 1.519531 1.59375 2.09375 1.15625 C 2.675781 0.726562 3.410156 0.367188 4.296875 0.078125 L 4.53125 -0.921875 C 3.882812 -0.234375 3.128906 0.109375 2.265625 0.109375 C 1.546875 0.109375 0.945312 -0.132812 0.46875 -0.625 C -0.0078125 -1.113281 -0.25 -1.878906 -0.25 -2.921875 C -0.25 -3.859375 -0.0625 -4.835938 0.3125 -5.859375 C 0.6875 -6.890625 1.238281 -7.757812 1.96875 -8.46875 C 2.707031 -9.175781 3.585938 -9.53125 4.609375 -9.53125 C 5.117188 -9.53125 5.5 -9.441406 5.75 -9.265625 C 6.007812 -9.085938 6.140625 -8.851562 6.140625 -8.5625 L 6.140625 -8.453125 L 6.34375 -9.4375 L 9.0625 -9.4375 L 7.1875 -0.671875 C 7.789062 -0.878906 8.273438 -1.179688 8.640625 -1.578125 C 9.003906 -1.984375 9.3125 -2.582031 9.5625 -3.375 L 10.359375 -3.375 C 10.023438 -2.257812 9.566406 -1.4375 8.984375 -0.90625 C 8.398438 -0.382812 7.742188 -0.03125 7.015625 0.15625 L 6.734375 1.515625 C 6.484375 2.734375 6.050781 3.570312 5.4375 4.03125 C 4.820312 4.488281 4.125 4.71875 3.34375 4.71875 Z M 3.484375 -1.71875 C 3.773438 -1.71875 4.070312 -1.847656 4.375 -2.109375 C 4.675781 -2.378906 4.882812 -2.738281 5 -3.1875 L 5.96875 -7.65625 C 5.96875 -7.8125 5.90625 -7.96875 5.78125 -8.125 C 5.65625 -8.28125 5.457031 -8.359375 5.1875 -8.359375 C 4.6875 -8.359375 4.234375 -8.066406 3.828125 -7.484375 C 3.429688 -6.898438 3.117188 -6.195312 2.890625 -5.375 C 2.660156 -4.550781 2.546875 -3.820312 2.546875 -3.1875 C 2.546875 -2.5625 2.632812 -2.160156 2.8125 -1.984375 C 3 -1.804688 3.222656 -1.71875 3.484375 -1.71875 Z M 2.90625 3.25 C 3.125 3.25 3.332031 3.101562 3.53125 2.8125 C 3.726562 2.519531 3.882812 2.101562 4 1.5625 L 4.109375 1.015625 C 2.878906 1.472656 2.265625 2.007812 2.265625 2.625 C 2.265625 2.789062 2.320312 2.9375 2.4375 3.0625 C 2.550781 3.1875 2.707031 3.25 2.90625 3.25 Z M 2.90625 3.25 "/></g></g></g><g fill="#000000" fill-opacity="1"><g transform="translate(29.065218, 20.91222)"><g><path d="M 3.34375 4.71875 C 2.738281 4.71875 2.234375 4.5625 1.828125 4.25 C 1.429688 3.9375 1.234375 3.484375 1.234375 2.890625 C 1.234375 2.171875 1.519531 1.59375 2.09375 1.15625 C 2.675781 0.726562 3.410156 0.367188 4.296875 0.078125 L 4.53125 -0.921875 C 3.882812 -0.234375 3.128906 0.109375 2.265625 0.109375 C 1.546875 0.109375 0.945312 -0.132812 0.46875 -0.625 C -0.0078125 -1.113281 -0.25 -1.878906 -0.25 -2.921875 C -0.25 -3.859375 -0.0625 -4.835938 0.3125 -5.859375 C 0.6875 -6.890625 1.238281 -7.757812 1.96875 -8.46875 C 2.707031 -9.175781 3.585938 -9.53125 4.609375 -9.53125 C 5.117188 -9.53125 5.5 -9.441406 5.75 -9.265625 C 6.007812 -9.085938 6.140625 -8.851562 6.140625 -8.5625 L 6.140625 -8.453125 L 6.34375 -9.4375 L 9.0625 -9.4375 L 7.1875 -0.671875 C 7.789062 -0.878906 8.273438 -1.179688 8.640625 -1.578125 C 9.003906 -1.984375 9.3125 -2.582031 9.5625 -3.375 L 10.359375 -3.375 C 10.023438 -2.257812 9.566406 -1.4375 8.984375 -0.90625 C 8.398438 -0.382812 7.742188 -0.03125 7.015625 0.15625 L 6.734375 1.515625 C 6.484375 2.734375 6.050781 3.570312 5.4375 4.03125 C 4.820312 4.488281 4.125 4.71875 3.34375 4.71875 Z M 3.484375 -1.71875 C 3.773438 -1.71875 4.070312 -1.847656 4.375 -2.109375 C 4.675781 -2.378906 4.882812 -2.738281 5 -3.1875 L 5.96875 -7.65625 C 5.96875 -7.8125 5.90625 -7.96875 5.78125 -8.125 C 5.65625 -8.28125 5.457031 -8.359375 5.1875 -8.359375 C 4.6875 -8.359375 4.234375 -8.066406 3.828125 -7.484375 C 3.429688 -6.898438 3.117188 -6.195312 2.890625 -5.375 C 2.660156 -4.550781 2.546875 -3.820312 2.546875 -3.1875 C 2.546875 -2.5625 2.632812 -2.160156 2.8125 -1.984375 C 3 -1.804688 3.222656 -1.71875 3.484375 -1.71875 Z M 2.90625 3.25 C 3.125 3.25 3.332031 3.101562 3.53125 2.8125 C 3.726562 2.519531 3.882812 2.101562 4 1.5625 L 4.109375 1.015625 C 2.878906 1.472656 2.265625 2.007812 2.265625 2.625 C 2.265625 2.789062 2.320312 2.9375 2.4375 3.0625 C 2.550781 3.1875 2.707031 3.25 2.90625 3.25 Z M 2.90625 3.25 "/></g></g></g><g fill="#000000" fill-opacity="1"><g transform="translate(38.632803, 20.91222)"><g><path d="M 1.875 0.109375 C 1.269531 0.109375 0.78125 -0.078125 0.40625 -0.453125 C 0.03125 -0.828125 -0.15625 -1.394531 -0.15625 -2.15625 C -0.15625 -2.46875 -0.101562 -2.875 0 -3.375 L 2.015625 -12.828125 L 4.8125 -13.21875 L 2.640625 -3.015625 C 2.585938 -2.828125 2.5625 -2.628906 2.5625 -2.421875 C 2.5625 -2.160156 2.617188 -1.976562 2.734375 -1.875 C 2.859375 -1.769531 3.0625 -1.71875 3.34375 -1.71875 C 3.707031 -1.71875 4.046875 -1.867188 4.359375 -2.171875 C 4.671875 -2.484375 4.898438 -2.882812 5.046875 -3.375 L 5.828125 -3.375 C 5.367188 -2.019531 4.769531 -1.097656 4.03125 -0.609375 C 3.300781 -0.128906 2.582031 0.109375 1.875 0.109375 Z M 1.875 0.109375 "/></g></g></g><g fill="#000000" fill-opacity="1"><g transform="translate(43.671353, 20.91222)"><g><path d="M 3.15625 -10.453125 C 2.738281 -10.453125 2.382812 -10.597656 2.09375 -10.890625 C 1.800781 -11.179688 1.65625 -11.535156 1.65625 -11.953125 C 1.65625 -12.367188 1.800781 -12.722656 2.09375 -13.015625 C 2.382812 -13.304688 2.738281 -13.453125 3.15625 -13.453125 C 3.570312 -13.453125 3.925781 -13.304688 4.21875 -13.015625 C 4.507812 -12.722656 4.65625 -12.367188 4.65625 -11.953125 C 4.65625 -11.535156 4.507812 -11.179688 4.21875 -10.890625 C 3.925781 -10.597656 3.570312 -10.453125 3.15625 -10.453125 Z M 1.875 0.109375 C 1.269531 0.109375 0.78125 -0.078125 0.40625 -0.453125 C 0.03125 -0.828125 -0.15625 -1.394531 -0.15625 -2.15625 C -0.15625 -2.46875 -0.101562 -2.875 0 -3.375 L 1.28125 -9.4375 L 4 -9.4375 L 2.640625 -3.015625 C 2.585938 -2.828125 2.5625 -2.628906 2.5625 -2.421875 C 2.5625 -2.160156 2.617188 -1.976562 2.734375 -1.875 C 2.859375 -1.769531 3.0625 -1.71875 3.34375 -1.71875 C 3.707031 -1.71875 4.046875 -1.867188 4.359375 -2.171875 C 4.671875 -2.484375 4.898438 -2.882812 5.046875 -3.375 L 5.828125 -3.375 C 5.367188 -2.019531 4.769531 -1.097656 4.03125 -0.609375 C 3.300781 -0.128906 2.582031 0.109375 1.875 0.109375 Z M 1.875 0.109375 "/></g></g></g><g fill="#000000" fill-opacity="1"><g transform="translate(48.709902, 20.91222)"><g><path d="M 3.34375 4.71875 C 2.738281 4.71875 2.234375 4.5625 1.828125 4.25 C 1.429688 3.9375 1.234375 3.484375 1.234375 2.890625 C 1.234375 2.171875 1.519531 1.59375 2.09375 1.15625 C 2.675781 0.726562 3.410156 0.367188 4.296875 0.078125 L 4.53125 -0.921875 C 3.882812 -0.234375 3.128906 0.109375 2.265625 0.109375 C 1.546875 0.109375 0.945312 -0.132812 0.46875 -0.625 C -0.0078125 -1.113281 -0.25 -1.878906 -0.25 -2.921875 C -0.25 -3.859375 -0.0625 -4.835938 0.3125 -5.859375 C 0.6875 -6.890625 1.238281 -7.757812 1.96875 -8.46875 C 2.707031 -9.175781 3.585938 -9.53125 4.609375 -9.53125 C 5.117188 -9.53125 5.5 -9.441406 5.75 -9.265625 C 6.007812 -9.085938 6.140625 -8.851562 6.140625 -8.5625 L 6.140625 -8.453125 L 6.34375 -9.4375 L 9.0625 -9.4375 L 7.1875 -0.671875 C 7.789062 -0.878906 8.273438 -1.179688 8.640625 -1.578125 C 9.003906 -1.984375 9.3125 -2.582031 9.5625 -3.375 L 10.359375 -3.375 C 10.023438 -2.257812 9.566406 -1.4375 8.984375 -0.90625 C 8.398438 -0.382812 7.742188 -0.03125 7.015625 0.15625 L 6.734375 1.515625 C 6.484375 2.734375 6.050781 3.570312 5.4375 4.03125 C 4.820312 4.488281 4.125 4.71875 3.34375 4.71875 Z M 3.484375 -1.71875 C 3.773438 -1.71875 4.070312 -1.847656 4.375 -2.109375 C 4.675781 -2.378906 4.882812 -2.738281 5 -3.1875 L 5.96875 -7.65625 C 5.96875 -7.8125 5.90625 -7.96875 5.78125 -8.125 C 5.65625 -8.28125 5.457031 -8.359375 5.1875 -8.359375 C 4.6875 -8.359375 4.234375 -8.066406 3.828125 -7.484375 C 3.429688 -6.898438 3.117188 -6.195312 2.890625 -5.375 C 2.660156 -4.550781 2.546875 -3.820312 2.546875 -3.1875 C 2.546875 -2.5625 2.632812 -2.160156 2.8125 -1.984375 C 3 -1.804688 3.222656 -1.71875 3.484375 -1.71875 Z M 2.90625 3.25 C 3.125 3.25 3.332031 3.101562 3.53125 2.8125 C 3.726562 2.519531 3.882812 2.101562 4 1.5625 L 4.109375 1.015625 C 2.878906 1.472656 2.265625 2.007812 2.265625 2.625 C 2.265625 2.789062 2.320312 2.9375 2.4375 3.0625 C 2.550781 3.1875 2.707031 3.25 2.90625 3.25 Z M 2.90625 3.25 "/></g></g></g><g fill="#000000" fill-opacity="1"><g transform="translate(58.277487, 20.91222)"><g><path d="M 6.8125 0.109375 C 6.039062 0.109375 5.476562 -0.09375 5.125 -0.5 C 4.769531 -0.90625 4.59375 -1.410156 4.59375 -2.015625 C 4.59375 -2.285156 4.625 -2.585938 4.6875 -2.921875 C 4.75 -3.253906 4.8125 -3.578125 4.875 -3.890625 C 4.945312 -4.203125 4.992188 -4.40625 5.015625 -4.5 C 5.117188 -4.9375 5.210938 -5.367188 5.296875 -5.796875 C 5.390625 -6.222656 5.4375 -6.566406 5.4375 -6.828125 C 5.4375 -7.472656 5.207031 -7.796875 4.75 -7.796875 C 4.425781 -7.796875 4.140625 -7.632812 3.890625 -7.3125 C 3.640625 -6.988281 3.4375 -6.570312 3.28125 -6.0625 L 2 0 L -0.71875 0 L 2.015625 -12.828125 L 4.8125 -13.21875 L 3.796875 -8.453125 C 4.421875 -9.160156 5.15625 -9.515625 6 -9.515625 C 6.644531 -9.515625 7.15625 -9.335938 7.53125 -8.984375 C 7.90625 -8.628906 8.09375 -8.09375 8.09375 -7.375 C 8.09375 -7.007812 8.046875 -6.601562 7.953125 -6.15625 C 7.867188 -5.71875 7.75 -5.175781 7.59375 -4.53125 C 7.488281 -4.132812 7.394531 -3.75 7.3125 -3.375 C 7.226562 -3.007812 7.1875 -2.722656 7.1875 -2.515625 C 7.1875 -2.265625 7.242188 -2.066406 7.359375 -1.921875 C 7.472656 -1.785156 7.671875 -1.71875 7.953125 -1.71875 C 8.328125 -1.71875 8.625 -1.851562 8.84375 -2.125 C 9.070312 -2.394531 9.300781 -2.8125 9.53125 -3.375 L 10.328125 -3.375 C 9.859375 -1.988281 9.316406 -1.0625 8.703125 -0.59375 C 8.097656 -0.125 7.46875 0.109375 6.8125 0.109375 Z M 6.8125 0.109375 "/></g></g></g><g clip-path="url(#b38f2d7e92)"><g fill="#000000" fill-opacity="1"><g transform="translate(67.80733, 20.91222)"><g><path d="M 1.875 0.109375 C 1.269531 0.109375 0.78125 -0.078125 0.40625 -0.453125 C 0.03125 -0.828125 -0.15625 -1.394531 -0.15625 -2.15625 C -0.15625 -2.46875 -0.101562 -2.875 0 -3.375 L 1.125 -8.6875 L 0.515625 -8.6875 L 0.65625 -9.4375 L 1.28125 -9.4375 L 1.84375 -12.046875 L 4.640625 -12.421875 L 4 -9.4375 L 5.140625 -9.4375 L 4.984375 -8.6875 L 3.84375 -8.6875 L 2.640625 -3.015625 C 2.585938 -2.828125 2.5625 -2.628906 2.5625 -2.421875 C 2.5625 -2.160156 2.617188 -1.976562 2.734375 -1.875 C 2.859375 -1.769531 3.0625 -1.71875 3.34375 -1.71875 C 3.707031 -1.71875 4.046875 -1.867188 4.359375 -2.171875 C 4.671875 -2.484375 4.898438 -2.882812 5.046875 -3.375 L 5.828125 -3.375 C 5.367188 -2.019531 4.769531 -1.097656 4.03125 -0.609375 C 3.300781 -0.128906 2.582031 0.109375 1.875 0.109375 Z M 1.875 0.109375 "/></g></g></g></g></svg>